P2
80 60
16383
2124 2068 2236 2124 2236 2068 2180 2012 2012 2180 2012 1901 2180 2292 2292 2236 2236 2180 2068 2180 2124 2124 1901 2236 2068 2124 2236 2236 2068 2292 2068 2012 2124 1957 2012 1901 2236 2180 2236 2236 2124 2236 2404 2404 2348 2236 2012 2012 2292 2068 2124 2124 2124 2012 2124 2124 2012 2012 2068 2180 2460 2348 2683 2627 2739 2516 2404 2292 2236 2236 2180 2236 2236 2404 2292 2180 2404 2068 2180 2236
1957 2236 2068 2180 2236 2124 1901 2012 1733 2068 1957 2068 2012 2348 2012 1957 2068 2236 2012 1901 2068 2068 2124 2124 1957 2068 1957 2124 2124 2180 2068 1957 2124 1901 1957 1957 2068 2292 2012 2236 2292 2236 2348 2404 2012 2180 1957 2068 2124 2124 2012 2124 1845 1957 2068 2012 2012 2124 2236 2348 2404 2348 2236 2627 2572 2572 2572 2124 2124 1957 2180 2180 2012 2236 2124 2348 2348 2124 2068 2068
2068 1957 1901 1957 2068 2068 2012 1957 2180 1957 1957 1845 2068 1901 1957 2012 2012 1901 1957 2012 2012 2012 1901 1901 1957 2068 2012 2180 2180 2180 1845 1901 1957 1845 1733 1789 2012 2068 2124 2068 2180 2180 2292 1901 2068 2068 1845 1845 1901 1845 1901 1957 1621 1789 1957 2124 1733 1789 1901 2012 2124 1957 2124 2236 2236 2236 2292 1845 2180 1957 2180 1957 2068 1957 2068 2180 2180 2068 1901 2124
1789 2068 2012 2124 2292 2124 2124 1957 1845 2012 1957 1901 2124 2012 2012 1901 2236 1845 2012 1901 2012 2068 2068 2124 2012 2012 1845 2180 1957 2068 1957 1789 1957 1901 1845 1677 1957 1845 1901 2068 2068 2068 2180 2180 2124 2012 1789 1789 1845 1789 1789 1901 1733 1789 1733 1845 1565 1901 1845 1957 1901 1957 2012 1957 1957 1957 2012 2012 2012 1845 1957 2124 1901 2180 2012 2012 2012 1957 1789 1845
1733 2236 1901 2012 2012 2068 2012 1789 1901 2068 2068 1789 2068 2012 2124 1901 1901 1957 1901 1957 2068 1845 1845 2012 1845 1901 1789 1957 2012 1957 1789 1621 1901 1789 1901 1733 1957 2068 1789 1957 2012 1957 2236 2124 2012 1957 1845 1957 1957 1789 1789 1901 1733 1789 1845 1565 1789 1845 1733 1789 1901 1789 1845 1957 1957 1957 1845 2012 2012 2068 1789 1957 1845 2012 1901 1957 1733 1901 1733 2012
2068 2236 2068 1957 2236 1901 2068 2124 1845 1845 1789 2012 2012 2012 2012 2012 2068 2012 1901 1901 2012 2012 1789 2012 1901 2012 2012 2068 1957 1901 1845 1845 1957 1845 1733 1621 1789 1957 1789 1845 1789 2068 2180 2068 2012 2124 1901 1957 1677 1789 1621 1789 1677 1677 1621 1677 1845 1845 1789 1957 1901 1621 1789 1957 1901 1957 1621 1845 1677 1789 1845 1845 1621 2068 1901 1845 1957 1845 1845 1957
1901 1957 2068 2180 2180 2124 1621 1901 1901 1733 2068 1901 1901 2012 2068 1957 2012 1845 1957 1957 2068 1789 2012 2068 1957 1901 1957 2012 2124 2124 1845 1565 1901 1845 1901 1677 1901 2068 1677 1845 1733 1957 1957 1901 1957 2012 1901 1621 1677 1901 1677 1677 1677 1677 1733 1789 1789 1733 1677 1901 1901 1957 1677 1845 1789 1789 1565 1733 1733 1677 1621 1565 1677 1845 1621 2068 1789 1677 1957 2012
1901 2180 2012 2012 2180 2068 1957 2012 1957 1957 1901 1901 1957 2068 2012 1901 1957 2012 1901 1901 2124 1901 1957 2068 1957 1845 1957 2012 2012 2124 1845 1789 1901 1901 1789 1621 1733 1789 1789 1901 1677 1957 1957 2012 1901 1733 1733 1789 1789 1789 1845 1677 1733 1789 1789 1733 1565 1677 1733 1845 1733 1789 1621 1789 1733 1845 1677 1901 1845 1789 1733 1845 1509 1733 1901 1733 2012 1901 1789 1789
1901 1957 1901 1789 1957 1677 2068 1845 1733 1901 1957 2068 1901 2012 1957 1845 1845 2068 1789 1845 1957 1733 1901 2012 1677 1901 2068 2012 1957 2012 1789 1733 1901 2012 1845 1677 1733 1789 1621 1733 1845 2012 1845 2068 1901 1957 1733 1733 1733 1901 1845 1677 1789 1733 1789 1677 1565 1621 1733 1733 1677 1677 1677 1621 1901 1845 1789 1789 1677 1733 1677 1789 1677 1845 1733 1789 2012 1957 1733 1509
1789 1957 1845 1957 1845 1789 1677 1565 1789 1677 1901 1677 1901 1957 1845 1845 2012 1957 1789 1901 1957 1901 2012 1845 1845 1901 1901 2068 1901 1957 1733 1677 3298 3969 3075 1677 1789 1845 1733 1789 1733 1901 1957 1845 1901 1901 1733 1621 1789 2460 2516 1901 1565 1621 1677 1621 1621 1733 1733 1733 1901 1845 1845 1845 1733 1677 1677 1677 1621 1565 1621 1845 1733 1733 1733 1789 1677 2012 1845 1621
2012 2012 2068 1789 2012 1789 1901 1733 1845 1509 1733 1845 1901 2068 2012 1789 1957 1957 1845 2012 1733 1901 1901 1901 1845 1789 1901 1789 1789 1957 1845 2348 4585 4640 4305 1957 1677 1733 1845 1789 1845 1901 1901 1901 1901 1845 1789 2460 3522 4361 4249 2907 1789 1621 1845 1621 1733 1565 1733 1733 1789 1565 1789 1901 1733 1845 1789 1565 1621 1677 1565 1901 1677 1677 1733 1733 1845 1621 1789 1621
1677 1957 1845 1957 2068 1901 1789 1677 1845 1733 1957 2012 1901 1845 1677 1733 1957 1677 1621 1789 1957 1733 1789 1733 1733 1789 1733 1621 1789 1733 1901 3858 4640 4640 4417 2348 1621 1453 1509 1845 1677 1957 1677 1733 1733 1789 3019 4361 4417 4585 4696 3354 1565 1565 1230 1733 1453 1453 1397 1621 1565 1677 1565 1677 1733 1621 1677 1565 1565 1565 1621 1621 1453 1621 1677 1789 1845 1677 1621 1845
1789 2124 1957 1845 2012 1677 1789 1677 1677 1677 1733 1845 1901 1901 1845 1733 1565 1509 1565 1397 1565 1453 1565 1677 1621 1621 1621 1677 1453 1677 3019 4529 4808 4864 4417 2124 1565 1453 1453 1509 1509 1565 1733 1453 1845 3354 4864 4808 4752 4696 3914 1901 1397 1062 1230 1230 1174 1174 1341 1286 1286 1341 1397 1565 1453 1397 1341 1565 1453 1509 1565 1565 1286 1621 1621 1789 1789 1509 1621 1621
1789 1845 1845 1901 2292 1789 1901 1733 1901 1677 1901 1845 1845 1901 1733 1397 1453 1397 1565 1453 1509 1397 1565 1509 1509 1565 1621 1677 1621 2683 4696 4808 5311 5200 4193 1565 1397 1341 1286 1230 1509 1565 1565 2292 3914 4640 5144 4920 4640 3634 1733 1453 1174 1006 1174 1118 1006 1062 950 1006 1118 1286 1118 1118 1286 1174 1174 1230 1286 1174 1230 1341 1341 1286 1397 1565 1733 1453 1397 1341
1789 1957 1733 1901 2068 1901 1733 1901 1789 1733 2068 1901 1789 2012 1677 1341 1341 1565 1565 1509 1677 1565 1509 1901 1621 1845 1509 1621 2012 4585 5367 5479 5871 5200 3243 1509 1230 1397 1286 1509 1286 1621 2404 4361 4864 5200 4864 4696 3354 1733 1509 1397 1174 1230 1286 1677 1286 1062 1174 1397 1118 1118 1118 1174 1174 1174 1118 1230 1118 1062 1006 1062 1062 1062 1174 1286 1453 1286 1397 1174
1845 1901 1901 1901 2012 1677 1845 1621 1565 1621 1845 1845 1677 1621 1453 1453 1341 1397 1453 1677 1677 1509 1509 1789 1789 1789 1845 2068 3746 5423 5591 5926 6038 5144 2124 1341 1341 1286 1230 1174 1286 2292 4585 5144 5423 5367 4864 3075 1677 1397 1453 1397 1397 1565 2292 2851 2572 1509 1118 1118 1118 894 950 1174 1118 1062 894 1062 1062 1230 1006 950 894 950 1118 950 1397 1062 950 1118
1733 1901 1621 1901 1901 1565 1789 1565 1789 1677 1733 1677 1733 1733 1341 1621 1789 1565 1621 1621 1733 1621 1677 1789 1677 1733 1733 2963 5088 5647 5815 5982 5982 3243 1397 1286 1397 1621 1453 1341 2068 4193 5088 5479 5479 5255 3298 1677 1621 1565 1733 1341 2068 3187 3243 3075 2907 2180 1062 1062 782 950 1118 1006 1286 894 1006 1118 782 1062 838 950 894 1006 1174 1006 1006 838 838 1006
1957 1789 1845 2068 1845 1565 1733 1677 1789 1733 1677 1453 1565 1565 1341 1733 1845 1677 1565 1845 1845 1677 1621 1789 1845 1901 2292 5144 5647 5759 5647 5703 4025 1733 1397 1453 1565 1733 1397 2068 4025 4864 5255 5703 5367 3802 1789 1565 1509 1397 1901 2739 4025 4081 3578 3354 2739 1789 1118 1118 950 1006 1062 1006 950 838 726 838 782 838 950 838 1006 1006 894 1006 1174 1006 1174 894
1901 1845 1957 1901 1789 1733 1621 1621 1397 1397 1453 1677 1509 1565 1397 1677 1901 1845 1621 1733 1845 1677 1677 1677 1733 2739 5255 6094 6038 5815 5982 4473 1901 1565 1565 1621 1733 1901 2236 4249 4976 5367 5423 5200 4193 2180 1509 1621 1621 2124 3690 4417 4585 4249 3858 3019 1957 1341 1174 1286 1341 1118 1006 1062 1006 1006 950 1006 894 838 782 950 950 838 1062 1230 1174 1230 1006 782
1845 1733 1565 2068 1733 1621 1565 1621 1565 1565 1733 1677 1565 1565 1397 1565 2012 1845 1845 1733 1901 1621 1845 1789 2292 5647 7045 6877 6709 6542 5759 2627 1789 1789 1733 1677 2068 3187 4752 5926 5982 5759 5479 4305 2292 1677 1621 1789 3243 4417 4752 4808 4640 4417 3019 2012 1453 1341 1397 1341 1286 1230 1174 1062 1006 1062 1230 1118 1230 1006 1062 1174 1062 1118 1062 1341 1341 1174 950 894
1565 1509 1397 1509 1677 1621 1397 1565 1230 1397 1286 1397 1341 1565 1397 1677 1733 1733 1509 1789 1733 1845 1733 2068 5144 7436 7604 7604 7268 7101 3914 1901 1621 1565 1565 2236 4361 5871 6206 6318 6542 6318 5200 2460 1845 1845 2516 4025 4920 5200 4976 4585 3802 2348 1789 1845 1901 1397 1397 1397 1341 1230 1230 1118 894 1006 1062 1006 1062 1062 1118 1062 1230 1286 1230 1341 1118 838 838 838
1230 1397 1286 1453 1621 1341 1621 1397 1286 1230 1397 1453 1453 1509 1341 1453 1789 1677 1565 1677 1789 1565 1621 2907 7436 8051 8107 8275 7995 7772 4864 2348 2348 3410 4640 5982 6765 6989 7157 7101 7157 6653 3131 2068 2180 3466 4808 6038 5759 5255 4696 3914 2292 2124 2627 2795 2572 1733 1453 1509 1397 1286 1286 1062 1118 1062 1118 1230 1230 1062 1174 1006 1230 1230 1118 1286 1062 894 838 950
1397 1453 1509 1453 1565 1397 1621 1565 1565 1453 1509 1397 1230 1341 1397 1286 1341 1453 1453 1677 1621 1621 1733 4137 8163 8499 8554 8219 8499 8331 8051 6374 6821 7268 7101 7324 7660 7716 7660 7548 7380 6653 4025 3802 4640 5032 5479 5703 5647 4808 3634 2348 2516 3522 3187 2963 2348 1677 1286 1509 1565 1062 1174 1230 1062 1174 1118 1230 1286 1118 1286 1062 1118 1062 894 1118 838 838 838 894
1341 1341 1286 1453 1621 1453 1453 1453 1453 1397 1397 1509 1453 1341 1453 1453 1174 1397 1397 1397 1509 1677 1789 5479 8387 8778 8331 8499 8387 8275 8387 8051 7828 7660 7716 7772 8443 8387 8219 8051 7660 7157 6542 5982 5926 5591 5200 4752 3858 2851 2404 3522 4137 4025 3410 2739 1789 1453 1341 1341 1230 1286 1118 1062 1118 1174 1118 1062 1230 1062 1062 1118 1006 1118 1062 1118 1006 1174 894 670
1397 1453 1565 1565 1677 1509 1341 1453 1453 1565 1677 1453 1509 1565 1453 1509 1453 1341 1453 1677 1621 1397 2180 6821 8554 9058 8778 8666 8554 8499 8610 8051 8107 8219 8387 8610 8834 8890 8499 8107 7660 7436 7101 6653 5871 5591 4249 2963 2572 2963 3914 4585 4529 4081 3187 2180 1509 1565 1453 1453 1286 1397 1230 1230 1174 1286 1286 1174 1062 1286 1230 1174 1230 838 894 1062 950 950 1062 894
1397 1565 1677 1509 1789 1509 1453 1397 1397 1509 1509 1621 1565 1509 1565 1565 1397 1453 1509 1621 1621 1621 2963 7939 8834 9002 8666 8722 8610 8778 8778 8499 8778 8890 8890 9170 9058 8890 8666 8219 7828 7492 6933 6653 5982 4585 2907 3522 3746 4081 4585 4696 4137 3354 2068 1509 1677 1453 1341 1341 1286 1230 1118 1174 1174 1230 1174 1118 1006 1062 1006 1174 1006 1118 1006 1174 950 950 838 838
1397 1453 1621 1565 1901 1677 1453 1286 1286 1397 1565 1509 1286 1453 1453 1565 1286 1341 1341 1509 1733 1789 4473 8834 9225 9170 8946 9170 8890 9114 9281 9337 9281 9337 9337 9225 9114 8946 8499 8219 7939 7604 7101 6430 5311 4025 4305 4864 5088 4864 4473 3914 2516 1845 1621 1509 1453 1341 1341 1286 1230 1230 1062 1118 1286 1174 1286 1006 1062 1006 950 1230 1118 1118 950 782 950 894 782 447
1286 1509 1397 1733 1789 1621 1509 1397 1509 1453 1453 1565 1453 1509 1621 1565 1286 1453 1453 1677 1677 2124 6486 9393 9617 9505 9281 9617 9114 9281 9505 9617 9617 9673 9505 9225 9281 8946 8610 8219 7883 7660 7212 6318 5815 5144 5255 5535 5311 4417 3354 2348 1677 1565 1397 1453 1453 1621 1621 1453 1118 1286 1118 1174 1230 1174 1062 1118 1118 1062 1174 1230 1286 1006 1006 950 838 838 782 726
1509 1621 1453 1509 1677 1565 1565 1453 1453 1397 1397 1397 1453 1789 1677 1565 1509 1453 1453 1733 1957 2795 8219 9896 10008 9952 9840 9673 9561 9561 9673 9896 9952 9729 9337 9281 9114 8722 8331 8163 7939 7548 7101 6430 5871 5479 5144 4696 3969 2851 1733 1901 1453 1286 1453 1453 1286 1397 1509 1230 1341 1286 1286 1118 1174 1118 1062 1174 1118 1006 1118 1006 1118 1174 1118 1230 1006 838 726 782
1733 2012 1733 1789 1789 1677 1621 1509 1509 1509 1621 1565 1453 1677 1509 1453 1565 1565 1677 1789 1901 3914 9225 9840 10288 10176 10008 10008 10064 9952 10008 10064 10232 9896 9393 9225 8666 8387 8499 7995 7716 7492 6821 6374 5982 5311 4193 3075 2012 1677 1621 1565 1397 1174 1341 1453 1286 1230 1453 1453 1341 1397 1286 1341 1341 1341 1174 1174 1174 1230 1118 1118 1006 1286 1174 1230 1006 838 1062 894
1845 1733 1341 1621 1621 1733 1565 1677 1677 1565 1789 1789 1453 1789 1677 1733 1789 1733 1957 2068 3298 7268 9785 10232 10288 10232 10288 10400 10232 10120 10120 10232 10344 9896 9225 8946 8610 8275 8051 7883 7492 7212 6653 6430 5647 4081 2292 1677 1621 1509 1565 1453 1230 1621 2124 2292 1733 1397 1397 1453 1286 1230 1118 1230 1453 1286 1397 1286 1509 1062 950 950 950 894 1118 1062 1006 670 950 838
1789 1789 1845 1733 1677 1621 1677 1621 1733 1677 1677 1789 1733 1621 1733 1733 2068 2627 3858 6094 8890 10903 10456 10400 10400 10456 10511 10344 10288 10232 10400 10232 10064 9785 9281 8946 8722 8275 7828 7772 7324 7157 6821 6206 5311 2572 1733 1565 1565 1565 1901 2292 2516 2907 2683 2627 1789 1286 1453 1397 1174 1174 1006 1453 1341 1397 1341 1453 1397 1118 1006 894 838 950 1118 1174 1118 726 894 894
1565 1565 1621 1845 1957 1677 1733 1845 1733 1957 2124 2236 2348 2683 3690 4752 6877 8554 10288 11518 12301 11686 10903 10735 10623 10623 10511 10456 10344 10288 10344 10064 9952 9952 9281 8722 8554 7939 7772 7436 7045 6877 6653 5926 5200 3634 3131 3075 3019 3522 3466 3578 3243 2963 2404 2124 1565 1397 1286 1397 1341 1006 1062 1174 1230 1230 1118 1397 1286 1062 1006 838 950 894 1118 1062 1118 894 838 447
1789 2068 2012 2068 2124 2180 2460 2739 3187 4137 5255 6318 7604 9281 10288 11294 12021 12636 12916 13195 13084 12021 11462 10847 10679 10456 10511 10456 10344 10288 10064 10008 9561 9505 8946 8610 8107 7604 7380 7380 6933 6765 6374 5926 5423 4864 4305 4025 4193 3969 3522 3578 3019 2404 1845 1621 1397 1341 1341 1230 1286 1006 1230 1062 1118 1286 1174 1397 1341 1118 950 894 1006 1006 1118 1174 1230 1062 894 559
2572 2907 3187 3746 4585 5535 6597 8275 10120 11238 12301 12580 13139 13307 13307 13195 13755 13922 13755 13587 13084 12189 11742 11071 10623 10511 10456 10400 10176 10064 9785 9393 9114 8722 8275 8051 7828 7212 6765 7045 7045 6877 6318 5647 5200 4696 4193 4025 3914 3522 2851 2404 1789 1565 1453 1397 1174 1397 1286 1286 1230 1286 1230 1062 1230 1118 1118 1286 1006 1062 1006 1062 838 726 950 1118 1118 894 838 670
7548 8554 9281 10567 11630 12580 13195 13643 14202 14481 14761 14537 14481 14425 14370 14090 14202 13922 13699 13363 12804 12357 11853 11406 11071 10567 10344 10344 10232 10008 9561 9058 8666 8219 7772 7492 7212 6877 6486 6709 6765 6486 6094 5535 4920 4025 3690 3131 2572 2068 1509 1509 1341 1230 1118 1341 1118 1453 1230 1397 1565 1397 1341 1174 1118 1174 1118 1230 1286 950 1006 1118 894 894 782 950 1118 615 838 838
14258 14761 14873 15096 15320 15432 15376 15320 15376 15264 14929 14649 14314 14314 13922 13475 13587 13419 13195 12860 12692 12189 11574 11238 11015 10456 10120 10176 9785 9393 8834 8331 8051 7716 7045 7045 6933 6597 6262 6206 6374 6262 5926 4864 3522 2516 2012 1677 1397 1341 1230 1118 1174 1230 1286 1174 1062 1230 1118 1453 1509 1453 1062 1397 1174 1062 1286 1286 1230 1006 1006 1230 1062 1230 1118 1230 950 1118 1006 838
16103 16383 16103 15991 15767 15376 15544 15041 14985 14593 14370 13978 13755 13643 13419 13251 13084 12860 12524 12413 12189 11686 11350 10959 10456 10008 9617 9561 9114 8666 8275 7883 7380 6989 6765 6430 6597 6262 5759 5815 5815 4920 3522 2404 1677 1397 1118 1341 1230 1174 1062 1174 950 1062 1006 1174 1006 1062 894 1286 1341 1062 950 1062 1118 1062 1230 1118 1118 894 726 950 782 1397 950 950 950 894 782 559
16383 16271 16159 15823 15712 15096 15096 14705 14370 14258 14034 13755 13699 13307 13195 12860 13084 12636 12468 12189 11965 11630 11238 10791 10176 9561 9170 8890 8499 8219 7716 7268 7045 6765 6542 6318 6374 6150 5703 4864 3187 2068 1733 1621 1286 1174 1118 1006 782 838 1006 1006 950 1006 1006 838 1062 950 615 950 1006 1006 838 838 782 894 782 950 1006 726 838 838 838 950 1006 950 894 670 950 670
15935 15879 15544 15264 15152 14817 14537 14370 14090 13866 13866 13587 13419 13363 13139 12748 12804 12413 12133 12077 11797 11294 10959 10456 9729 9281 8722 8387 8163 7716 7268 6765 6597 6430 6206 6206 5982 5311 3746 2180 1621 1341 1509 1341 1230 1062 1118 1006 726 894 950 1062 894 1062 838 894 838 670 838 894 838 1006 726 838 782 726 726 503 670 726 726 726 726 726 782 1118 950 670 782 670
15544 15320 15208 15041 14593 14425 14705 14146 13866 13531 13531 13475 13307 13084 12804 12636 12524 12357 12021 11853 11350 11238 10847 10176 9617 9002 8554 8163 7939 7324 6933 6709 6486 6262 5982 5088 3969 2292 1621 1397 1230 1118 1174 1230 1230 1174 1006 1062 950 838 726 1006 950 894 950 726 838 782 670 726 726 838 726 670 726 670 782 782 670 615 615 726 615 615 503 615 782 559 615 503
14985 15041 14873 14705 14537 14370 14146 13810 13587 13475 13475 13139 13084 13139 12748 12468 12077 11965 11909 11630 11294 10791 10679 10064 9281 8722 8387 7828 7492 7045 6542 6150 5815 4585 3075 1957 1509 1341 1230 1174 1341 1286 1230 1174 1174 1118 894 894 894 670 894 1062 1062 838 838 894 950 950 782 838 838 615 615 670 782 615 670 447 670 391 391 726 670 615 335 670 559 447 615 391
14761 14649 14370 14481 14370 14034 13755 13643 13363 13251 13084 12972 12748 12636 12413 12189 11853 11742 11462 11127 10847 10679 10064 9449 8722 8163 7212 6262 4640 3634 2851 2292 2012 1733 1397 1286 1174 1062 1118 1062 1230 1174 1118 1006 1006 1006 950 782 726 782 726 894 1118 950 838 950 782 950 782 726 559 726 503 670 670 615 559 279 670 391 559 503 615 503 335 615 559 335 447 447
14481 14537 14090 14202 14090 13810 13419 13084 12916 12748 12860 12636 12468 12468 12077 11797 11574 11350 10903 10679 10456 9505 8387 6653 4640 3410 2460 2012 1677 1677 1341 1118 1230 1174 1286 1118 1230 1286 1006 950 1118 1118 1062 950 894 1006 782 838 782 838 670 950 1062 894 782 782 782 1006 726 670 559 782 615 670 838 782 559 670 726 615 447 670 447 447 447 503 335 670 447 447
14034 14090 13922 13810 13810 13531 13084 12860 12748 12524 12357 12245 12077 11686 11518 11127 10735 10232 9058 7939 6542 4696 3354 2404 1957 1565 1341 1286 1286 1174 950 1062 1062 1118 950 1062 1118 1006 1006 1062 1062 950 1118 838 782 1006 838 726 670 726 726 726 950 1006 615 670 782 894 670 670 670 503 559 615 894 615 503 615 615 447 503 615 447 726 447 447 335 167 279 167
13978 13755 13531 13419 13643 13084 12972 12636 12357 12133 11853 11574 11182 10959 10064 8387 7045 5144 3466 2851 2292 1509 1509 1286 1453 1062 1118 1174 1286 1230 894 1118 950 1006 1006 1118 1230 1118 894 894 838 1006 1118 894 950 950 838 838 726 838 615 894 894 838 838 838 726 950 670 726 782 726 670 726 726 559 615 670 559 670 615 615 279 447 335 559 391 167 279 279
13307 13531 13195 13251 13084 12636 12245 11965 11574 11182 10456 9561 8107 6430 4585 3075 2292 1677 1174 1453 1453 1174 1006 1118 950 1118 1118 1062 1118 1174 782 838 894 950 894 1006 1230 950 1006 726 894 950 894 894 894 782 838 726 782 782 782 726 782 782 782 950 726 894 838 894 838 726 670 782 670 559 615 726 559 391 447 559 447 335 335 503 279 335 223 223
12916 12804 12413 12189 11853 11182 10456 9617 8275 6653 4976 3746 2851 2124 1789 1565 1341 1230 1006 1174 1118 1118 1006 1118 950 1006 1230 1062 1062 1006 726 559 782 726 726 1118 1230 950 782 782 670 838 838 782 782 726 894 503 894 782 670 1006 894 894 670 726 726 782 726 726 782 615 670 503 559 670 447 559 615 615 615 447 335 559 503 447 279 223 111 167
11574 11182 10232 9114 7772 6374 4808 3746 2795 2068 1677 1453 1509 1397 1341 1174 838 1006 1062 1118 1174 838 1062 1174 1006 1062 1230 1006 1006 1062 1006 838 782 726 894 1062 1118 782 615 615 726 726 782 782 726 615 838 559 670 615 782 950 726 559 670 782 615 894 615 726 782 782 670 503 838 615 559 726 670 391 447 503 335 670 559 391 391 503 223 335
7045 5926 4529 3914 3019 2404 2068 1565 1509 1062 1062 950 1174 1230 1062 1062 1118 1006 838 838 1062 894 1062 1062 950 950 1118 1006 1230 782 1006 726 1006 838 894 894 1174 838 782 838 782 1006 1062 782 894 838 894 503 670 838 615 838 670 726 670 615 838 1006 782 838 670 615 559 615 726 615 726 615 503 391 559 447 447 559 167 670 335 391 391 167
2292 2236 1733 1789 1677 1286 1286 1230 1174 894 1062 1006 1006 1341 1174 1062 894 838 1006 1006 1174 894 894 1062 726 1006 894 1006 1118 1230 894 950 894 838 894 894 1062 1006 838 950 838 726 838 838 894 670 782 838 559 670 615 782 670 726 615 726 894 894 782 670 670 615 559 559 503 726 503 615 447 167 726 391 335 391 391 615 167 391 167 223
1006 1174 1118 1286 1509 1230 1062 950 1062 838 950 950 1174 1230 1006 782 950 1006 894 894 1230 782 1062 950 1062 1006 950 894 1118 1062 670 782 726 894 894 782 1174 894 726 838 782 726 950 838 726 726 782 559 559 782 726 726 782 726 670 615 559 894 726 726 838 559 503 670 670 670 670 615 503 447 559 391 335 447 447 335 391 279 111 391
1230 1174 1006 1286 1453 1006 1006 782 894 726 950 782 1118 1230 1006 1062 1062 1006 894 894 1118 950 950 950 950 1006 894 950 1062 950 894 782 615 894 726 838 1006 894 670 670 894 838 950 670 838 670 726 559 670 670 670 950 670 726 670 615 726 782 726 782 726 782 559 782 615 670 503 670 559 559 559 559 503 615 447 447 279 223 223 0
838 1062 1062 1509 1174 1062 950 838 1062 782 782 782 1006 1174 1286 838 950 782 838 950 1118 1006 894 894 950 894 950 894 1118 1062 670 782 670 726 670 782 894 950 782 726 838 894 950 726 950 838 726 559 670 838 615 894 559 782 670 615 559 670 559 670 726 782 670 726 615 670 559 503 503 503 670 503 391 559 670 335 335 167 335 167
1006 1118 782 1118 1006 1006 950 782 894 838 1006 950 1174 1341 1062 838 1006 782 838 950 1174 894 950 1006 950 950 1062 950 1062 1006 670 894 782 615 782 559 559 894 726 782 782 782 838 838 670 838 670 615 670 838 615 894 782 670 726 782 838 782 782 726 670 559 670 615 559 670 615 615 615 726 279 559 391 447 615 559 391 167 391 391
503 838 950 1062 838 782 950 950 782 782 950 950 894 1062 894 782 838 670 615 894 894 782 838 726 1006 950 1006 1006 1006 950 838 838 894 838 670 503 615 838 782 559 503 838 838 838 838 782 615 670 615 838 447 838 615 670 559 615 559 559 726 726 838 615 615 559 670 503 894 447 615 447 447 503 391 335 111 559 335 391 335 111
782 894 782 1006 1397 1006 950 950 838 894 950 894 838 1118 894 726 670 838 894 950 838 838 838 950 1062 1006 950 726 1118 894 838 950 894 782 670 559 782 726 670 615 670 726 782 615 950 1062 670 670 559 726 726 838 726 615 447 894 559 838 503 838 782 670 615 503 615 447 615 503 391 503 503 559 726 391 503 503 447 167 279 279
615 950 838 1006 1006 838 1006 726 1062 1006 950 838 950 1006 1006 782 726 1006 726 950 1118 838 950 838 950 838 894 1006 950 950 782 838 838 670 726 559 670 838 726 838 670 894 894 894 782 838 670 838 559 838 559 726 726 670 726 838 503 726 726 782 782 726 615 670 670 615 726 559 615 503 615 559 615 559 447 447 391 167 335 223
894 950 726 894 1230 1174 1230 1006 1230 1174 1118 1174 1062 1230 1006 950 894 726 670 838 1118 838 838 894 838 950 838 894 838 782 894 726 894 838 615 503 503 615 559 615 782 1006 1006 950 838 838 670 726 726 670 782 782 615 726 615 726 670 615 559 726 559 615 503 503 615 615 559 447 615 335 447 559 559 335 447 447 503 335 335 167
1062 726 950 1118 1565 1341 1397 1174 1118 1174 1174 1286 1174 1341 1174 1118 1230 1286 1230 1286 1397 1174 1286 1341 1174 1286 1230 1230 1230 1286 1006 838 1341 1062 615 615 950 1230 950 1006 894 1230 1397 1453 1286 1397 1174 1006 782 1006 782 838 726 726 670 838 615 726 670 726 726 726 447 503 726 447 615 615 670 559 559 726 335 335 447 503 615 670 447 335